<svg width="1920" height="1080" viewBox="0 0 1920 1080" fill="none" xmlns="http://www.w3.org/2000/svg">
<rect width="1920" height="1080" fill="#1A1A1A"/>
<g opacity="0.1">
<path d="M100 0L0 100V0H100Z" fill="#333333"/>
<path d="M200 0L100 100V0H200Z" fill="#333333"/>
<path d="M300 0L200 100V0H300Z" fill="#333333"/>
<path d="M400 0L300 100V0H400Z" fill="#333333"/>
<path d="M500 0L400 100V0H500Z" fill="#333333"/>
<path d="M600 0L500 100V0H600Z" fill="#333333"/>
<path d="M700 0L600 100V0H700Z" fill="#333333"/>
<path d="M800 0L700 100V0H800Z" fill="#333333"/>
<path d="M900 0L800 100V0H900Z" fill="#333333"/>
<path d="M1000 0L900 100V0H1000Z" fill="#333333"/>
<path d="M1100 0L1000 100V0H1100Z" fill="#333333"/>
<path d="M1200 0L1100 100V0H1200Z" fill="#333333"/>
<path d="M1300 0L1200 100V0H1300Z" fill="#333333"/>
<path d="M1400 0L1300 100V0H1400Z" fill="#333333"/>
<path d="M1500 0L1400 100V0H1500Z" fill="#333333"/>
<path d="M1600 0L1500 100V0H1600Z" fill="#333333"/>
<path d="M1700 0L1600 100V0H1700Z" fill="#333333"/>
<path d="M1800 0L1700 100V0H1800Z" fill="#333333"/>
<path d="M1900 0L1800 100V0H1900Z" fill="#333333"/>
<path d="M1920 0L1900 20V0H1920Z" fill="#333333"/>
<path d="M0 100L0 200L100 100L0 100Z" fill="#333333"/>
<path d="M100 100L0 200L100 200L200 100L100 100Z" fill="#333333"/>
<path d="M200 100L100 200L200 200L300 100L200 100Z" fill="#333333"/>
<path d="M300 100L200 200L300 200L400 100L300 100Z" fill="#333333"/>
<path d="M400 100L300 200L400 200L500 100L400 100Z" fill="#333333"/>
<path d="M500 100L400 200L500 200L600 100L500 100Z" fill="#333333"/>
<path d="M600 100L500 200L600 200L700 100L600 100Z" fill="#333333"/>
<path d="M700 100L600 200L700 200L800 100L700 100Z" fill="#333333"/>
<path d="M800 100L700 200L800 200L900 100L800 100Z" fill="#333333"/>
<path d="M900 100L800 200L900 200L1000 100L900 100Z" fill="#333333"/>
<path d="M1000 100L900 200L1000 200L1100 100L1000 100Z" fill="#333333"/>
<path d="M1100 100L1000 200L1100 200L1200 100L1100 100Z" fill="#333333"/>
<path d="M1200 100L1100 200L1200 200L1300 100L1200 100Z" fill="#333333"/>
<path d="M1300 100L1200 200L1300 200L1400 100L1300 100Z" fill="#333333"/>
<path d="M1400 100L1300 200L1400 200L1500 100L1400 100Z" fill="#333333"/>
<path d="M1500 100L1400 200L1500 200L1600 100L1500 100Z" fill="#333333"/>
<path d="M1600 100L1500 200L1600 200L1700 100L1600 100Z" fill="#333333"/>
<path d="M1700 100L1600 200L1700 200L1800 100L1700 100Z" fill="#333333"/>
<path d="M1800 100L1700 200L1800 200L1900 100L1800 100Z" fill="#333333"/>
<path d="M1900 100L1900 200L1920 180L1920 100L1900 100Z" fill="#333333"/>
<path d="M0 200L0 300L100 200L0 200Z" fill="#333333"/>
<path d="M100 200L0 300L100 300L200 200L100 200Z" fill="#333333"/>
<path d="M200 200L100 300L200 300L300 200L200 200Z" fill="#333333"/>
<path d="M300 200L200 300L300 300L400 200L300 200Z" fill="#333333"/>
<path d="M400 200L300 300L400 300L500 200L400 200Z" fill="#333333"/>
<path d="M500 200L400 300L500 300L600 200L500 200Z" fill="#333333"/>
<path d="M600 200L500 300L600 300L700 200L600 200Z" fill="#333333"/>
<path d="M700 200L600 300L700 300L800 200L700 200Z" fill="#333333"/>
<path d="M800 200L700 300L800 300L900 200L800 200Z" fill="#333333"/>
<path d="M900 200L800 300L900 300L1000 200L900 200Z" fill="#333333"/>
<path d="M1000 200L900 300L1000 300L1100 200L1000 200Z" fill="#333333"/>
<path d="M1100 200L1000 300L1100 300L1200 200L1100 200Z" fill="#333333"/>
<path d="M1200 200L1100 300L1200 300L1300 200L1200 200Z" fill="#333333"/>
<path d="M1300 200L1200 300L1300 300L1400 200L1300 200Z" fill="#333333"/>
<path d="M1400 200L1300 300L1400 300L1500 200L1400 200Z" fill="#333333"/>
<path d="M1500 200L1400 300L1500 300L1600 200L1500 200Z" fill="#333333"/>
<path d="M1600 200L1500 300L1600 300L1700 200L1600 200Z" fill="#333333"/>
<path d="M1700 200L1600 300L1700 300L1800 200L1700 200Z" fill="#333333"/>
<path d="M1800 200L1700 300L1800 300L1900 200L1800 200Z" fill="#333333"/>
<path d="M1900 200L1900 300L1920 280L1920 200L1900 200Z" fill="#333333"/>
<path d="M0 300L0 400L100 300L0 300Z" fill="#333333"/>
<path d="M100 300L0 400L100 400L200 300L100 300Z" fill="#333333"/>
<path d="M200 300L100 400L200 400L300 300L200 300Z" fill="#333333"/>
<path d="M300 300L200 400L300 400L400 300L300 300Z" fill="#333333"/>
<path d="M400 300L300 400L400 400L500 300L400 300Z" fill="#333333"/>
<path d="M500 300L400 400L500 400L600 300L500 300Z" fill="#333333"/>
<path d="M600 300L500 400L600 400L700 300L600 300Z" fill="#333333"/>
<path d="M700 300L600 400L700 400L800 300L700 300Z" fill="#333333"/>
<path d="M800 300L700 400L800 400L900 300L800 300Z" fill="#333333"/>
<path d="M900 300L800 400L900 400L1000 300L900 300Z" fill="#333333"/>
<path d="M1000 300L900 400L1000 400L1100 300L1000 300Z" fill="#333333"/>
<path d="M1100 300L1000 400L1100 400L1200 300L1100 300Z" fill="#333333"/>
<path d="M1200 300L1100 400L1200 400L1300 300L1200 300Z" fill="#333333"/>
<path d="M1300 300L1200 400L1300 400L1400 300L1300 300Z" fill="#333333"/>
<path d="M1400 300L1300 400L1400 400L1500 300L1400 300Z" fill="#333333"/>
<path d="M1500 300L1400 400L1500 400L1600 300L1500 300Z" fill="#333333"/>
<path d="M1600 300L1500 400L1600 400L1700 300L1600 300Z" fill="#333333"/>
<path d="M1700 300L1600 400L1700 400L1800 300L1700 300Z" fill="#333333"/>
<path d="M1800 300L1700 400L1800 400L1900 300L1800 300Z" fill="#333333"/>
<path d="M1900 300L1900 400L1920 380L1920 300L1900 300Z" fill="#333333"/>
<path d="M0 400L0 500L100 400L0 400Z" fill="#333333"/>
<path d="M100 400L0 500L100 500L200 400L100 400Z" fill="#333333"/>
<path d="M200 400L100 500L200 500L300 400L200 400Z" fill="#333333"/>
<path d="M300 400L200 500L300 500L400 400L300 400Z" fill="#333333"/>
<path d="M400 400L300 500L400 500L500 400L400 400Z" fill="#333333"/>
<path d="M500 400L400 500L500 500L600 400L500 400Z" fill="#333333"/>
<path d="M600 400L500 500L600 500L700 400L600 400Z" fill="#333333"/>
<path d="M700 400L600 500L700 500L800 400L700 400Z" fill="#333333"/>
<path d="M800 400L700 500L800 500L900 400L800 400Z" fill="#333333"/>
<path d="M900 400L800 500L900 500L1000 400L900 400Z" fill="#333333"/>
<path d="M1000 400L900 500L1000 500L1100 400L1000 400Z" fill="#333333"/>
<path d="M1100 400L1000 500L1100 500L1200 400L1100 400Z" fill="#333333"/>
<path d="M1200 400L1100 500L1200 500L1300 400L1200 400Z" fill="#333333"/>
<path d="M1300 400L1200 500L1300 500L1400 400L1300 400Z" fill="#333333"/>
<path d="M1400 400L1300 500L1400 500L1500 400L1400 400Z" fill="#333333"/>
<path d="M1500 400L1400 500L1500 500L1600 400L1500 400Z" fill="#333333"/>
<path d="M1600 400L1500 500L1600 500L1700 400L1600 400Z" fill="#333333"/>
<path d="M1700 400L1600 500L1700 500L1800 400L1700 400Z" fill="#333333"/>
<path d="M1800 400L1700 500L1800 500L1900 400L1800 400Z" fill="#333333"/>
<path d="M1900 400L1900 500L1920 480L1920 400L1900 400Z" fill="#333333"/>
<path d="M0 500L0 600L100 500L0 500Z" fill="#333333"/>
<path d="M100 500L0 600L100 600L200 500L100 500Z" fill="#333333"/>
<path d="M200 500L100 600L200 600L300 500L200 500Z" fill="#333333"/>
<path d="M300 500L200 600L300 600L400 500L300 500Z" fill="#333333"/>
<path d="M400 500L300 600L400 600L500 500L400 500Z" fill="#333333"/>
<path d="M500 500L400 600L500 600L600 500L500 500Z" fill="#333333"/>
<path d="M600 500L500 600L600 600L700 500L600 500Z" fill="#333333"/>
<path d="M700 500L600 600L700 600L800 500L700 500Z" fill="#333333"/>
<path d="M800 500L700 600L800 600L900 500L800 500Z" fill="#333333"/>
<path d="M900 500L800 600L900 600L1000 500L900 500Z" fill="#333333"/>
<path d="M1000 500L900 600L1000 600L1100 500L1000 500Z" fill="#333333"/>
<path d="M1100 500L1000 600L1100 600L1200 500L1100 500Z" fill="#333333"/>
<path d="M1200 500L1100 600L1200 600L1300 500L1200 500Z" fill="#333333"/>
<path d="M1300 500L1200 600L1300 600L1400 500L1300 500Z" fill="#333333"/>
<path d="M1400 500L1300 600L1400 600L1500 500L1400 500Z" fill="#333333"/>
<path d="M1500 500L1400 600L1500 600L1600 500L1500 500Z" fill="#333333"/>
<path d="M1600 500L1500 600L1600 600L1700 500L1600 500Z" fill="#333333"/>
<path d="M1700 500L1600 600L1700 600L1800 500L1700 500Z" fill="#333333"/>
<path d="M1800 500L1700 600L1800 600L1900 500L1800 500Z" fill="#333333"/>
<path d="M1900 500L1900 600L1920 580L1920 500L1900 500Z" fill="#333333"/>
<path d="M0 600L0 700L100 600L0 600Z" fill="#333333"/>
<path d="M100 600L0 700L100 700L200 600L100 600Z" fill="#333333"/>
<path d="M200 600L100 700L200 700L300 600L200 600Z" fill="#333333"/>
<path d="M300 600L200 700L300 700L400 600L300 600Z" fill="#333333"/>
<path d="M400 600L300 700L400 700L500 600L400 600Z" fill="#333333"/>
<path d="M500 600L400 700L500 700L600 600L500 600Z" fill="#333333"/>
<path d="M600 600L500 700L600 700L700 600L600 600Z" fill="#333333"/>
<path d="M700 600L600 700L700 700L800 600L700 600Z" fill="#333333"/>
<path d="M800 600L700 700L800 700L900 600L800 600Z" fill="#333333"/>
<path d="M900 600L800 700L900 700L1000 600L900 600Z" fill="#333333"/>
<path d="M1000 600L900 700L1000 700L1100 600L1000 600Z" fill="#333333"/>
<path d="M1100 600L1000 700L1100 700L1200 600L1100 600Z" fill="#333333"/>
<path d="M1200 600L1100 700L1200 700L1300 600L1200 600Z" fill="#333333"/>
<path d="M1300 600L1200 700L1300 700L1400 600L1300 600Z" fill="#333333"/>
<path d="M1400 600L1300 700L1400 700L1500 600L1400 600Z" fill="#333333"/>
<path d="M1500 600L1400 700L1500 700L1600 600L1500 600Z" fill="#333333"/>
<path d="M1600 600L1500 700L1600 700L1700 600L1600 600Z" fill="#333333"/>
<path d="M1700 600L1600 700L1700 700L1800 600L1700 600Z" fill="#333333"/>
<path d="M1800 600L1700 700L1800 700L1900 600L1800 600Z" fill="#333333"/>
<path d="M1900 600L1900 700L1920 680L1920 600L1900 600Z" fill="#333333"/>
<path d="M0 700L0 800L100 700L0 700Z" fill="#333333"/>
<path d="M100 700L0 800L100 800L200 700L100 700Z" fill="#333333"/>
<path d="M200 700L100 800L200 800L300 700L200 700Z" fill="#333333"/>
<path d="M300 700L200 800L300 800L400 700L300 700Z" fill="#333333"/>
<path d="M400 700L300 800L400 800L500 700L400 700Z" fill="#333333"/>
<path d="M500 700L400 800L500 800L600 700L500 700Z" fill="#333333"/>
<path d="M600 700L500 800L600 800L700 700L600 700Z" fill="#333333"/>
<path d="M700 700L600 800L700 800L800 700L700 700Z" fill="#333333"/>
<path d="M800 700L700 800L800 800L900 700L800 700Z" fill="#333333"/>
<path d="M900 700L800 800L900 800L1000 700L900 700Z" fill="#333333"/>
<path d="M1000 700L900 800L1000 800L1100 700L1000 700Z" fill="#333333"/>
<path d="M1100 700L1000 800L1100 800L1200 700L1100 700Z" fill="#333333"/>
<path d="M1200 700L1100 800L1200 800L1300 700L1200 700Z" fill="#333333"/>
<path d="M1300 700L1200 800L1300 800L1400 700L1300 700Z" fill="#333333"/>
<path d="M1400 700L1300 800L1400 800L1500 700L1400 700Z" fill="#333333"/>
<path d="M1500 700L1400 800L1500 800L1600 700L1500 700Z" fill="#333333"/>
<path d="M1600 700L1500 800L1600 800L1700 700L1600 700Z" fill="#333333"/>
<path d="M1700 700L1600 800L1700 800L1800 700L1700 700Z" fill="#333333"/>
<path d="M1800 700L1700 800L1800 800L1900 700L1800 700Z" fill="#333333"/>
<path d="M1900 700L1900 800L1920 780L1920 700L1900 700Z" fill="#333333"/>
<path d="M0 800L0 900L100 800L0 800Z" fill="#333333"/>
<path d="M100 800L0 900L100 900L200 800L100 800Z" fill="#333333"/>
<path d="M200 800L100 900L200 900L300 800L200 800Z" fill="#333333"/>
<path d="M300 800L200 900L300 900L400 800L300 800Z" fill="#333333"/>
<path d="M400 800L300 900L400 900L500 800L400 800Z" fill="#333333"/>
<path d="M500 800L400 900L500 900L600 800L500 800Z" fill="#333333"/>
<path d="M600 800L500 900L600 900L700 800L600 800Z" fill="#333333"/>
<path d="M700 800L600 900L700 900L800 800L700 800Z" fill="#333333"/>
<path d="M800 800L700 900L800 900L900 800L800 800Z" fill="#333333"/>
<path d="M900 800L800 900L900 900L1000 800L900 800Z" fill="#333333"/>
<path d="M1000 800L900 900L1000 900L1100 800L1000 800Z" fill="#333333"/>
<path d="M1100 800L1000 900L1100 900L1200 800L1100 800Z" fill="#333333"/>
<path d="M1200 800L1100 900L1200 900L1300 800L1200 800Z" fill="#333333"/>
<path d="M1300 800L1200 900L1300 900L1400 800L1300 800Z" fill="#333333"/>
<path d="M1400 800L1300 900L1400 900L1500 800L1400 800Z" fill="#333333"/>
<path d="M1500 800L1400 900L1500 900L1600 800L1500 800Z" fill="#333333"/>
<path d="M1600 800L1500 900L1600 900L1700 800L1600 800Z" fill="#333333"/>
<path d="M1700 800L1600 900L1700 900L1800 800L1700 800Z" fill="#333333"/>
<path d="M1800 800L1700 900L1800 900L1900 800L1800 800Z" fill="#333333"/>
<path d="M1900 800L1900 900L1920 880L1920 800L1900 800Z" fill="#333333"/>
<path d="M0 900L0 1000L100 900L0 900Z" fill="#333333"/>
<path d="M100 900L0 1000L100 1000L200 900L100 900Z" fill="#333333"/>
<path d="M200 900L100 1000L200 1000L300 900L200 900Z" fill="#333333"/>
<path d="M300 900L200 1000L300 1000L400 900L300 900Z" fill="#333333"/>
<path d="M400 900L300 1000L400 1000L500 900L400 900Z" fill="#333333"/>
<path d="M500 900L400 1000L500 1000L600 900L500 900Z" fill="#333333"/>
<path d="M600 900L500 1000L600 1000L700 900L600 900Z" fill="#333333"/>
<path d="M700 900L600 1000L700 1000L800 900L700 900Z" fill="#333333"/>
<path d="M800 900L700 1000L800 1000L900 900L800 900Z" fill="#333333"/>
<path d="M900 900L800 1000L900 1000L1000 900L900 900Z" fill="#333333"/>
<path d="M1000 900L900 1000L1000 1000L1100 900L1000 900Z" fill="#333333"/>
<path d="M1100 900L1000 1000L1100 1000L1200 900L1100 900Z" fill="#333333"/>
<path d="M1200 900L1100 1000L1200 1000L1300 900L1200 900Z" fill="#333333"/>
<path d="M1300 900L1200 1000L1300 1000L1400 900L1300 900Z" fill="#333333"/>
<path d="M1400 900L1300 1000L1400 1000L1500 900L1400 900Z" fill="#333333"/>
<path d="M1500 900L1400 1000L1500 1000L1600 900L1500 900Z" fill="#333333"/>
<path d="M1600 900L1500 1000L1600 1000L1700 900L1600 900Z" fill="#333333"/>
<path d="M1700 900L1600 1000L1700 1000L1800 900L1700 900Z" fill="#333333"/>
<path d="M1800 900L1700 1000L1800 1000L1900 900L1800 900Z" fill="#333333"/>
<path d="M1900 900L1900 1000L1920 980L1920 900L1900 900Z" fill="#333333"/>
<path d="M0 1000L0 1080L80 1080L100 1000L0 1000Z" fill="#333333"/>
<path d="M100 1000L0 1080L100 1080L200 1000L100 1000Z" fill="#333333"/>
<path d="M200 1000L100 1080L200 1080L300 1000L200 1000Z" fill="#333333"/>
<path d="M300 1000L200 1080L300 1080L400 1000L300 1000Z" fill="#333333"/>
<path d="M400 1000L300 1080L400 1080L500 1000L400 1000Z" fill="#333333"/>
<path d="M500 1000L400 1080L500 1080L600 1000L500 1000Z" fill="#333333"/>
<path d="M600 1000L500 1080L600 1080L700 1000L600 1000Z" fill="#333333"/>
<path d="M700 1000L600 1080L700 1080L800 1000L700 1000Z" fill="#333333"/>
<path d="M800 1000L700 1080L800 1080L900 1000L800 1000Z" fill="#333333"/>
<path d="M900 1000L800 1080L900 1080L1000 1000L900 1000Z" fill="#333333"/>
<path d="M1000 1000L900 1080L1000 1080L1100 1000L1000 1000Z" fill="#333333"/>
<path d="M1100 1000L1000 1080L1100 1080L1200 1000L1100 1000Z" fill="#333333"/>
<path d="M1200 1000L1100 1080L1200 1080L1300 1000L1200 1000Z" fill="#333333"/>
<path d="M1300 1000L1200 1080L1300 1080L1400 1000L1300 1000Z" fill="#333333"/>
<path d="M1400 1000L1300 1080L1400 1080L1500 1000L1400 1000Z" fill="#333333"/>
<path d="M1500 1000L1400 1080L1500 1080L1600 1000L1500 1000Z" fill="#333333"/>
<path d="M1600 1000L1500 1080L1600 1080L1700 1000L1600 1000Z" fill="#333333"/>
<path d="M1700 1000L1600 1080L1700 1080L1800 1000L1700 1000Z" fill="#333333"/>
<path d="M1800 1000L1700 1080L1800 1080L1900 1000L1800 1000Z" fill="#333333"/>
<path d="M1900 1000L1900 1080L1920 1080L1920 1000L1900 1000Z" fill="#333333"/>
</g>
</svg>