<svg width="24" height="24" viewBox="0 0 24 24" fill="none" xmlns="http://www.w3.org/2000/svg">
<path d="M10 20H12V22H10V20Z" fill="#654321"/>
<path d="M13 20H15V22H13V20Z" fill="#654321"/>
<path d="M10 16H15V20H10V16Z" fill="#708090"/>
<path d="M9 9H16V16H9V9Z" fill="#4682B4"/>
<path d="M11 6H16V9H11V6Z" fill="#DEB887"/>
<path d="M11 6H12V9H11V6Z" fill="#8B4513"/>
<path d="M14 7H15V8H14V7Z" fill="#000000"/>
<path d="M16 8H17V9H16V8Z" fill="#DEB887"/>
<path d="M14 9H15V10H14V9Z" fill="#5C3A1A"/>
<path d="M12 5H16V6H12V5Z" fill="#8B4513"/>
<path d="M11 4H17V5H11V4Z" fill="#556B2F"/>
<path d="M17 5H18V6H17V5Z" fill="#556B2F"/>
<path d="M15 10H17V12H15V10Z" fill="#8B4513"/>
<path d="M14 9H18V11H14V9Z" fill="#8B4513"/>
<path d="M17 10H22V11H17V10Z" fill="#C0C0C0"/>
<path d="M8 9H10V17H8V9Z" fill="#A0522D"/>
<path d="M7 10H8V16H7V10Z" fill="#C0C0C0"/>
<path d="M10 10H11V16H10V10Z" fill="#C0C0C0"/>
</svg>