<svg width="24" height="24" viewBox="0 0 24 24" fill="none" xmlns="http://www.w3.org/2000/svg">
<path d="M9 20H11V22H9V20Z" fill="#654321"/>
<path d="M13 20H15V22H13V20Z" fill="#654321"/>
<path d="M9 16H15V20H9V16Z" fill="#708090"/>
<path d="M8 9H16V16H8V9Z" fill="#4682B4"/>
<path d="M9 5H15V9H9V5Z" fill="#8B4513"/>
<path d="M8 4H16V5H8V4Z" fill="#556B2F"/>
<path d="M9 3H15V4H9V3Z" fill="#556B2F"/>
<path d="M6 10H8V12H6V10Z" fill="#8B4513"/>
<path d="M5 9H9V11H5V9Z" fill="#8B4513"/>
<path d="M6 8H7V9H6V8Z" fill="#C0C0C0"/>
<path d="M5 7H6V8H5V7Z" fill="#C0C0C0"/>
<path d="M4 6H5V7H4V6Z" fill="#C0C0C0"/>
<path d="M3 5H4V6H3V5Z" fill="#C0C0C0"/>
<path d="M2 4H3V5H2V4Z" fill="#C0C0C0"/>
<path d="M1 3H2V4H1V3Z" fill="#C0C0C0"/>
<path d="M16 9H19V17H16V9Z" fill="#A0522D"/>
<path d="M15 10H16V16H15V10Z" fill="#C0C0C0"/>
<path d="M19 10H20V16H19V10Z" fill="#C0C0C0"/>
<path d="M16 8H19V9H16V8Z" fill="#C0C0C0"/>
<path d="M16 17H19V18H16V17Z" fill="#C0C0C0"/>
</svg>