<svg viewBox="0 0 100 100" xmlns="http://www.w3.org/2000/svg">
  <!-- Head (Face) -->
  <circle cx="50" cy="25" r="10" fill="#F0C8A0"/>
  <!-- Hair -->
  <path d="M40 18 C40 10 60 10 60 18 L60 25 L40 25 Z" fill="#8B4513"/>
  <!-- Hat -->
  <polygon points="40,15 60,15 55,5 45,5" fill="#228B22"/>
  <!-- Eyes -->
  <circle cx="45" cy="23" r="1.5" fill="#000000"/>
  <circle cx="55" cy="23" r="1.5" fill="#000000"/>
  <!-- Mouth -->
  <path d="M47 28 Q50 30 53 28" stroke="#000000" stroke-width="1"/>

  <!-- Body (Blue Top) -->
  <rect x="40" y="30" width="20" height="40" fill="#4682B4"/>
  <!-- Arms (Blue Top) -->
  <rect x="30" y="35" width="10" height="20" fill="#4682B4"/>
  <rect x="60" y="40" width="25" height="10" fill="#4682B4"/>
  <!-- Legs (Grey Pants) -->
  <rect x="40" y="70" width="8" height="20" fill="#808080"/>
  <rect x="52" y="70" width="8" height="20" fill="#808080"/>
  <!-- Shoes (Brown) -->
  <rect x="40" y="88" width="8" height="7" fill="#A0522D"/>
  <rect x="52" y="88" width="8" height="7" fill="#A0522D"/>
</svg>