<svg width="24" height="24" viewBox="0 0 24 24" fill="none" xmlns="http://www.w3.org/2000/svg">
<path d="M9 20H11V22H9V20Z" fill="#654321"/>
<path d="M12 20H14V22H12V20Z" fill="#654321"/>
<path d="M9 16H14V20H9V16Z" fill="#708090"/>
<path d="M8 9H15V16H8V9Z" fill="#4682B4"/>
<path d="M8 6H13V9H8V6Z" fill="#DEB887"/>
<path d="M8 5H12V6H8V5Z" fill="#8B4513"/>
<path d="M7 4H13V5H7V4Z" fill="#556B2F"/>
<path d="M6 5H7V6H6V5Z" fill="#556B2F"/>
<path d="M14 9H16V17H14V9Z" fill="#A0522D"/>
<path d="M13 10H14V16H13V10Z" fill="#C0C0C0"/>
<path d="M16 10H17V16H16V10Z" fill="#C0C0C0"/>
</svg>