<svg viewBox="0 0 100 100" xmlns="http://www.w3.org/2000/svg">
  <defs>
    <style>
      .outline { stroke: #422d1a; stroke-width: 5; stroke-linecap: round; stroke-linejoin: round; fill: none; }
      .hat { fill: #5a6e42; }
      .hair { fill: #e6c86e; }
      .tunic { fill: #5a6e42; }
      .backpack { fill: #a57b52; }
      .skin { fill: #e0b88b; }
      .boots { fill: #6b5234; }
      .shield-main { fill: #808080; }
      .shield-cross { fill: #696969; }
      .sword-blade { fill: #c0c0c0; }
      .sword-hilt { fill: #ffd700; }
      .sword-pommel { fill: #e0b88b; }
    </style>
  </defs>
  
  <!-- Boots -->
  <path class="boots outline" d="M 35 82 C 28 85, 28 95, 38 95 C 48 95, 48 85, 41 82 Z" />
  <path class="boots outline" d="M 65 82 C 58 85, 58 95, 68 95 C 78 95, 78 85, 71 82 Z" />
  
  <!-- Tunic -->
  <path class="tunic outline" d="M 25 50 L 75 50 L 65 85 L 35 85 Z" />
  
  <!-- Backpack -->
  <rect x="40" y="55" width="20" height="20" rx="5" class="backpack outline" />
  
  <!-- Arms -->
  <path class="tunic outline" d="M 20 55 C 15 60, 15 65, 22 67" />
  <path class="skin outline" d="M 18 65 C 13 70, 18 75, 25 70" />
  <path class="tunic outline" d="M 80 55 C 85 60, 85 65, 78 67" />
  <path class="skin outline" d="M 82 65 C 87 70, 82 75, 75 70" />
  
  <!-- Head -->
  <g transform="translate(0, -5)">
    <!-- Hair -->
    <path class="hair outline" d="M 35 40 C 25 50, 25 60, 40 60 L 60 60 C 75 60, 75 50, 65 40 Z" />
    <!-- Hat -->
    <path class="hat outline" d="M 40 35 C 35 40, 35 50, 50 50 C 65 50, 65 40, 60 35 Z" />
  </g>

  <!-- Shield -->
  <g transform="translate(0, 0)">
    <ellipse cx="20" cy="70" rx="12" ry="15" class="shield-main outline" />
    <rect x="18" y="58" width="4" height="24" rx="2" class="shield-cross outline" />
    <rect x="10" y="68" width="20" height="4" rx="2" class="shield-cross outline" />
  </g>

  <!-- Sword -->
  <g transform="translate(80, 65) rotate(-45)">
    <path class="sword-blade outline" d="M -5 0 L 5 0 L 5 -35 L 0 -45 L -5 -35 Z" />
    <rect x="-10" y="0" width="20" height="5" rx="2" class="sword-hilt outline" />
    <circle cx="0" cy="8" r="4" class="sword-pommel outline" />
  </g>
</svg>