<svg viewBox="0 0 24 24" fill="none" xmlns="http://www.w3.org/2000/svg">
    <!-- Body -->
    <path d="M9 14 C 9 12, 15 12, 15 14 L 16 20 L 8 20 L 9 14 Z" fill="#8B4513"/>
    <!-- Head -->
    <path d="M8 14 C 6 12, 6 6, 12 6 C 18 6, 18 12, 16 14 Z" fill="#2E7D32"/>
    <!-- Ears -->
    <path d="M6 8 L 4 4 L 7 7 Z" fill="#2E7D32" stroke="#1B5E20" stroke-width="0.5"/>
    <path d="M18 8 L 20 4 L 17 7 Z" fill="#2E7D32" stroke="#1B5E20" stroke-width="0.5"/>
    <!-- Eyes -->
    <circle cx="10" cy="10" r="1.2" fill="#FFEB3B"/>
    <circle cx="14" cy="10" r="1.2" fill="#FFEB3B"/>
    <circle cx="10" cy="10" r="0.5" fill="#000000"/>
    <circle cx="14" cy="10" r="0.5" fill="#000000"/>
    <!-- Mouth -->
    <path d="M10 13 C 11 12, 13 12, 14 13" stroke="#1B5E20" stroke-width="1" stroke-linecap="round"/>
    <!-- Club -->
    <rect x="15" y="15" width="3" height="6" rx="1" fill="#A1887F" transform="rotate(20 16.5 18)"/>
    <circle cx="17" cy="14" r="2" fill="#A1887F" transform="rotate(20 17 14)"/>
</svg>