<svg viewBox="0 0 24 24" fill="none" xmlns="http://www.w3.org/2000/svg">
    <defs>
        <linearGradient id="goblinSkin" x1="0" y1="0" x2="1" y2="1">
            <stop offset="0%" stop-color="#6B8E23"/>
            <stop offset="100%" stop-color="#556B2F"/>
        </linearGradient>
        <filter id="shadow">
            <feDropShadow dx="0.5" dy="0.5" stdDeviation="0.5" flood-color="#000000" flood-opacity="0.5"/>
        </filter>
    </defs>
    <g filter="url(#shadow)">
        <path d="M18.5 12C19.5 14 20 17 18 19C16 21 13 22 12 22C11 22 8 21 6 19C4 17 4.5 14 5.5 12L4 6L8 9L12 7L16 9L20 6L18.5 12Z" fill="url(#goblinSkin)"/>
        <path d="M8 9L7 4L4 6L5.5 12" fill="#A0522D"/>
        <path d="M16 9L17 4L20 6L18.5 12" fill="#A0522D"/>
        <path d="M9 13C9 12.4477 9.44772 12 10 12H14C14.5523 12 15 12.4477 15 13C15 14.1046 14.1046 15 13 15H11C9.89543 15 9 14.1046 9 13Z" fill="#2F4F4F"/>
        <circle cx="10" cy="13.5" r="1.2" fill="#FF4500"/>
        <circle cx="14" cy="13.5" r="1.2" fill="#FF4500"/>
        <circle cx="10" cy="13.5" r="0.5" fill="black"/>
        <circle cx="14" cy="13.5" r="0.5" fill="black"/>
        <path d="M9 18C10 17 11 17.5 12 17.5C13 17.5 14 17 15 18" stroke="#2F4F4F" stroke-width="1" stroke-linecap="round"/>
        <path d="M8.5 18.5L9.5 17.5H10.5" stroke="white" stroke-width="0.8" stroke-linecap="round"/>
    </g>
</svg>