<svg viewBox="0 0 24 24" fill="none" xmlns="http://www.w3.org/2000/svg">
    <defs>
        <radialGradient id="shadowGradient" cx="50%" cy="50%" r="50%" fx="50%" fy="50%">
            <stop offset="0%" style="stop-color:#4A148C;stop-opacity:1" />
            <stop offset="100%" style="stop-color:#1A237E;stop-opacity:0.8" />
        </radialGradient>
    </defs>
    <!-- Body -->
    <path d="M12 4 C 6 4, 4 10, 6 16 C 8 22, 16 22, 18 16 C 20 10, 18 4, 12 4 Z" fill="url(#shadowGradient)"/>
    <!-- Wisps -->
    <path d="M6 16 C 4 18, 2 18, 3 20 C 4 22, 6 20, 6 18" fill="#4A148C" opacity="0.7"/>
    <path d="M18 16 C 20 18, 22 18, 21 20 C 20 22, 18 20, 18 18" fill="#4A148C" opacity="0.7"/>
    <path d="M10 21 C 10 23, 14 23, 14 21" fill="#4A148C" opacity="0.6"/>
    <!-- Eyes -->
    <circle cx="10" cy="12" r="1.5" fill="#F44336">
        <animate attributeName="r" values="1.5;1.7;1.5" dur="2s" repeatCount="indefinite" />
    </circle>
    <circle cx="14" cy="12" r="1.5" fill="#F44336">
        <animate attributeName="r" values="1.5;1.7;1.5" dur="2s" repeatCount="indefinite" />
    </circle>
</svg>