<svg viewBox="0 0 24 24" fill="none" xmlns="http://www.w3.org/2000/svg">
    <!-- Head -->
    <path d="M8 4 H 16 V 12 H 8 Z" fill="#E0E0E0" rx="2"/>
    <path d="M9 12 H 15 V 14 H 9 Z" fill="#E0E0E0"/>
    <!-- Eyes -->
    <circle cx="10.5" cy="8" r="1.5" fill="#000000"/>
    <circle cx="13.5" cy="8" r="1.5" fill="#000000"/>
    <!-- Nose -->
    <path d="M11.5 9.5 L 12.5 9.5 L 12 11 Z" fill="#000000"/>
    <!-- Teeth -->
    <rect x="9" y="12" width="1" height="2" fill="#BDBDBD"/>
    <rect x="11" y="12" width="1" height="2" fill="#BDBDBD"/>
    <rect x="13" y="12" width="1" height="2" fill="#BDBDBD"/>
    <!-- Body (Ribcage) -->
    <rect x="8" y="14" width="8" height="6" fill="none" stroke="#E0E0E0" stroke-width="1.5" rx="1"/>
    <line x1="8" y1="16" x2="16" y2="16" stroke="#E0E0E0" stroke-width="1"/>
    <line x1="8" y1="18" x2="16" y2="18" stroke="#E0E0E0" stroke-width="1"/>
    <!-- Arms -->
    <line x1="8" y1="15" x2="4" y2="18" stroke="#E0E0E0" stroke-width="1.5"/>
    <line x1="4" y1="18" x2="5" y2="22" stroke="#E0E0E0" stroke-width="1.5"/>
    <line x1="16" y1="15" x2="20" y2="18" stroke="#E0E0E0" stroke-width="1.5"/>
    <line x1="20" y1="18" x2="19" y2="22" stroke="#E0E0E0" stroke-width="1.5"/>
</svg>