<svg viewBox="0 0 24 24" fill="none" xmlns="http://www.w3.org/2000/svg">
    <defs>
        <linearGradient id="bone" x1="0" y1="0" x2="1" y2="1">
            <stop offset="0%" stop-color="#F5DEB3"/>
            <stop offset="100%" stop-color="#D2B48C"/>
        </linearGradient>
        <radialGradient id="eyeGlow" cx="50%" cy="50%" r="50%">
            <stop offset="0%" stop-color="#DC143C"/>
            <stop offset="100%" stop-color="black" stop-opacity="0.8"/>
        </radialGradient>
        <filter id="boneShadow">
            <feDropShadow dx="0.5" dy="1" stdDeviation="0.5" flood-color="#000000" flood-opacity="0.4"/>
        </filter>
    </defs>
    <g filter="url(#boneShadow)">
        <path d="M12 3C7.5 3 5 6 5 9V14C5 15 6 16 7 16H8V19C8 20 8.5 21 9.5 21H14.5C15.5 21 16 20 16 19V16H17C18 16 19 15 19 14V9C19 6 16.5 3 12 3Z" fill="url(#bone)"/>
        <path d="M9 9C9 7.89543 9.89543 7 11 7H13C14.1046 7 15 7.89543 15 9V11C15 12.1046 14.1046 13 13 13H11C9.89543 13 9 12.1046 9 11V9Z" fill="#222222"/>
        <circle cx="10.5" cy="10" r="1.5" fill="url(#eyeGlow)"/>
        <circle cx="13.5" cy="10" r="1.5" fill="url(#eyeGlow)"/>
        <path d="M11.5 13.5L12 15L12.5 13.5H11.5Z" fill="#222222"/>
        <rect x="8" y="16" width="1" height="4" fill="#222222"/>
        <rect x="10" y="16" width="1" height="4" fill="#222222"/>
        <rect x="12" y="16" width="1" height="4" fill="#222222"/>
        <rect x="14" y="16" width="1" height="4" fill="#222222"/>
        <path d="M17 5L18 4" stroke="#A9A9A9" stroke-width="0.5"/>
        <path d="M7 5L6 4" stroke="#A9A9A9" stroke-width="0.5"/>
        <path d="M12 3.5V2" stroke="#A9A9A9" stroke-width="0.5"/>
    </g>
</svg>