<svg viewBox="0 0 24 24" fill="none" xmlns="http://www.w3.org/2000/svg">
    <path d="M8 6C8 4.34315 9.34315 3 11 3H13C14.6569 3 16 4.34315 16 6V10C16 11.6569 14.6569 13 13 13H11C9.34315 13 8 11.6569 8 10V6Z" fill="#F5F5DC"/>
    <rect x="8" y="10" width="8" height="4" fill="#F5F5DC"/>
    <circle cx="10" cy="8" r="1.5" fill="black"/>
    <circle cx="14" cy="8" r="1.5" fill="black"/>
    <path d="M12 10L11.5 11.5H12.5L12 10Z" fill="black"/>
    <line x1="9" y1="13" x2="9" y2="14" stroke="black" stroke-width="0.5"/>
    <line x1="10" y1="13" x2="10" y2="14" stroke="black" stroke-width="0.5"/>
    <line x1="11" y1="13" x2="11" y2="14" stroke="black" stroke-width="0.5"/>
    <line x1="12" y1="13" x2="12" y2="14" stroke="black" stroke-width="0.5"/>
    <line x1="13" y1="13" x2="13" y2="14" stroke="black" stroke-width="0.5"/>
    <line x1="14" y1="13" x2="14" y2="14" stroke="black" stroke-width="0.5"/>
    <line x1="15" y1="13" x2="15" y2="14" stroke="black" stroke-width="0.5"/>
    <path d="M7 16C9 15.5 15 15.5 17 16" stroke="#F5F5DC" stroke-width="1.5" stroke-linecap="round"/>
    <path d="M7 18C9 17.5 15 17.5 17 18" stroke="#F5F5DC" stroke-width="1.5" stroke-linecap="round"/>
    <path d="M7 20C9 19.5 15 19.5 17 20" stroke="#F5F5DC" stroke-width="1.5" stroke-linecap="round"/>
</svg>