<svg viewBox="0 0 24 24" fill="none" xmlns="http://www.w3.org/2000/svg">
    <defs>
        <radialGradient id="watcherGradient" cx="50%" cy="50%" r="50%" fx="50%" fy="50%">
            <stop offset="0%" style="stop-color:#212121;stop-opacity:1" />
            <stop offset="100%" style="stop-color:#000000;stop-opacity:1" />
        </radialGradient>
    </defs>
    <!-- Main Body -->
    <path d="M4 10 C 4 4, 20 4, 20 10 C 20 18, 16 22, 12 22 C 8 22, 4 18, 4 10 Z" fill="url(#watcherGradient)"/>
    <!-- Tentacles -->
    <path d="M6 20 C 2 22, 2 16, 6 18" stroke="#212121" stroke-width="1.5" fill="none" stroke-linecap="round"/>
    <path d="M18 20 C 22 22, 22 16, 18 18" stroke="#212121" stroke-width="1.5" fill="none" stroke-linecap="round"/>
    <path d="M10 22 C 8 24, 12 24, 12 22" stroke="#212121" stroke-width="1.5" fill="none" stroke-linecap="round"/>
    <!-- Main Eye -->
    <circle cx="12" cy="12" r="4" fill="#B71C1C"/>
    <circle cx="12" cy="12" r="2" fill="#FFEB3B"/>
    <path d="M12 10 V 14" stroke="#000000" stroke-width="1.5"/>
    <!-- Smaller Eyes -->
    <circle cx="8" cy="8" r="1.5" fill="#B71C1C"><circle cx="0" cy="0" r="0.7" fill="#FFEB3B"/></circle>
    <circle cx="16" cy="8" r="1.5" fill="#B71C1C"><circle cx="0" cy="0" r="0.7" fill="#FFEB3B"/></circle>
    <circle cx="7" cy="15" r="1.2" fill="#B71C1C"><circle cx="0" cy="0" r="0.6" fill="#FFEB3B"/></circle>
    <circle cx="17" cy="15" r="1.2" fill="#B71C1C"><circle cx="0" cy="0" r="0.6" fill="#FFEB3B"/></circle>
    <circle cx="12" cy="6" r="1" fill="#B71C1C"><circle cx="0" cy="0" r="0.5" fill="#FFEB3B"/></circle>
</svg>