<svg width="32" height="32" viewBox="0 0 32 32" fill="none" xmlns="http://www.w3.org/2000/svg" shape-rendering="crispEdges">
  {/* Background/Base structure */}
  <rect x="4" y="4" width="24" height="24" fill="#4A4A4A"/> {/* Dark grey base */}
  <rect x="5" y="5" width="22" height="22" fill="#3A3A3A"/> {/* Inner dark grey */}

  {/* Main Gear/Mechanism Body */}
  <rect x="6" y="6" width="20" height="20" fill="#6B6B6B"/> {/* Lighter grey body */}
  <rect x="7" y="7" width="18" height="18" fill="#5A5A5A"/> {/* Inner body */}

  {/* Central Crystal Slot */}
  <rect x="12" y="12" width="8" height="8" fill="#2C2C2C"/> {/* Dark slot */}
  <rect x="13" y="13" width="6" height="6" fill="#1A1A1A"/> {/* Even darker inner slot */}

  {/* Gears/Cogs - Top Left */}
  <rect x="8" y="8" width="4" height="4" fill="#8B8B8B"/>
  <rect x="9" y="7" width="2" height="1" fill="#8B8B8B"/>
  <rect x="7" y="9" width="1" height="2" fill="#8B8B8B"/>

  {/* Gears/Cogs - Top Right */}
  <rect x="20" y="8" width="4" height="4" fill="#8B8B8B"/>
  <rect x="21" y="7" width="2" height="1" fill="#8B8B8B"/>
  <rect x="24" y="9" width="1" height="2" fill="#8B8B8B"/>

  {/* Gears/Cogs - Bottom Left */}
  <rect x="8" y="20" width="4" height="4" fill="#8B8B8B"/>
  <rect x="9" y="24" width="2" height="1" fill="#8B8B8B"/>
  <rect x="7" y="21" width="1" height="2" fill="#8B8B8B"/>

  {/* Gears/Cogs - Bottom Right */}
  <rect x="20" y="20" width="4" height="4" fill="#8B8B8B"/>
  <rect x="21" y="24" width="2" height="1" fill="#8B8B8B"/>
  <rect x="24" y="21" width="1" height="2" fill="#8B8B8B"/>

  {/* Decorative Lines/Symbols */}
  <rect x="15" y="7" width="2" height="2" fill="#7C7C7C"/>
  <rect x="15" y="23" width="2" height="2" fill="#7C7C7C"/>
  <rect x="7" y="15" width="2" height="2" fill="#7C7C7C"/>
  <rect x="23" y="15" width="2" height="2" fill="#7C7C7C"/>

  {/* Inner glowing lines (for when crystal is inserted) */}
  <rect x="10" y="15" width="2" height="2" fill="#9C9C9C"/>
  <rect x="20" y="15" width="2" height="2" fill="#9C9C9C"/>
  <rect x="15" y="10" width="2" height="2" fill="#9C9C9C"/>
  <rect x="15" y="20" width="2" height="2" fill="#9C9C9C"/>

  {/* Outer frame highlights */}
  <rect x="4" y="3" width="24" height="1" fill="#5A5A5A"/>
  <rect x="3" y="4" width="1" height="24" fill="#5A5A5A"/>
  <rect x="28" y="4" width="1" height="24" fill="#3A3A3A"/>
  <rect x="4" y="28" width="24" height="1" fill="#3A3A3A"/>
</svg>