<svg width="32" height="32" viewBox="0 0 32 32" xmlns="http://www.w3.org/2000/svg">
  <!-- Background -->
  <rect width="32" height="32" fill="#cccccc"/>
  <!-- Workbench base -->
  <rect x="4" y="12" width="24" height="12" fill="#8b5a2b"/>
  <rect x="4" y="12" width="24" height="12" fill="none" stroke="#5d3a1a" stroke-width="1"/>
  <!-- Workbench legs -->
  <rect x="6" y="24" width="4" height="8" fill="#5d3a1a"/>
  <rect x="22" y="24" width="4" height="8" fill="#5d3a1a"/>
  <!-- Workbench top details -->
  <rect x="8" y="14" width="16" height="8" fill="#a0522d"/>
  <rect x="8" y="14" width="16" height="8" fill="none" stroke="#7c4e1e" stroke-width="1"/>
  <!-- Tools on the bench -->
  <!-- Hammer -->
  <rect x="12" y="18" width="2" height="4" fill="#c0c0c0"/>
  <rect x="12" y="18" width="2" height="4" fill="none" stroke="#808080" stroke-width="1"/>
  <rect x="12" y="22" width="2" height="2" fill="#808080"/>
  <!-- Screwdriver -->
  <rect x="18" y="18" width="2" height="4" fill="#c0c0c0"/>
  <rect x="18" y="18" width="2" height="4" fill="none" stroke="#808080" stroke-width="1"/>
  <rect x="18" y="22" width="2" height="2" fill="#808080"/>
  <!-- Wrench -->
  <rect x="15" y="18" width="2" height="4" fill="#c0c0c0"/>
  <rect x="15" y="18" width="2" height="4" fill="none" stroke="#808080" stroke-width="1"/>
  <rect x="15" y="22" width="2" height="2" fill="#808080"/>
  <!-- Light shading -->
  <rect x="4" y="12" width="24" height="12" fill="none" stroke="#000000" stroke-width="0.5" opacity="0.1"/>
  <rect x="6" y="24" width="4" height="8" fill="none" stroke="#000000" stroke-width="0.5" opacity="0.1"/>
  <rect x="22" y="24" width="4" height="8" fill="none" stroke="#000000" stroke-width="0.5" opacity="0.1"/>
</svg>