<svg xmlns="http://www.w3.org/2000/svg" viewBox="0 0 16 16" shape-rendering="crispEdges">
  <g fill="#3E2723">
    <rect x="2" y="5" width="1" height="1" />
    <rect x="13" y="5" width="1" height="1" />
    <rect x="1" y="6" width="1" height="5" />
    <rect x="14" y="6" width="1" height="5" />
    <rect x="2" y="11" width="12" height="1" />
    <rect x="4" y="4" width="1" height="1" />
    <rect x="11" y="4" width="1" height="1" />
    <rect x="3" y="3" width="1" height="1" />
    <rect x="12" y="3" width="1" height="1" />
    <rect x="5" y="2" width="6" height="1" />
  </g>
  <g fill="#5D4037">
    <rect x="3" y="6" width="10" height="5" />
    <rect x="5" y="4" width="6" height="1" />
    <rect x="4" y="3" width="1" height="1" />
    <rect x="11" y="3" width="1" height="1" />
  </g>
  <g fill="#795548">
    <rect x="3" y="5" width="10" height="1" />
    <rect x="2" y="6" width="1" height="4" />
    <rect x="13" y="6" width="1" height="4" />
    <rect x="3" y="10" width="10" height="1" />
  </g>
  <g fill="#6D4C41">
    <rect x="6" y="3" width="4" height="1" />
    <rect x="2" y="7" width="1" height="1" />
    <rect x="13" y="7" width="1" height="1" />
    <rect x="4" y="10" width="1" height="1" />
    <rect x="11" y="10" width="1" height="1" />
  </g>
  <g fill="#FFB300">
    <rect x="7" y="8" width="2" height="2" />
  </g>
  <g fill="#9C27B0">
    <rect x="7" y="9" width="2" height="1" />
  </g>
</svg>