<svg width="32" height="32" viewBox="0 0 32 32" xmlns="http://www.w3.org/2000/svg">
  <!-- Base blood pool shape -->
  <path d="M8,16 C8,10 12,8 16,8 C20,8 24,10 24,16 C24,22 20,24 16,24 C12,24 8,22 8,16 Z" 
        fill="#8a0303" />
  
  <!-- Darker blood details -->
  <path d="M10,16 C10,12 13,10 16,10 C19,10 22,12 22,16 C22,20 19,22 16,22 C13,22 10,20 10,16 Z" 
        fill="#6a0101" opacity="0.7" />
  
  <!-- Blood highlights -->
  <path d="M12,16 C12,14 14,12 16,12 C18,12 20,14 20,16 C20,18 18,20 16,20 C14,20 12,18 12,16 Z" 
        fill="#b00505" opacity="0.5" />
  
  <!-- Blood splatter details -->
  <circle cx="9" cy="14" r="1" fill="#6a0101" />
  <circle cx="23" cy="18" r="1" fill="#6a0101" />
  <circle cx="20" cy="12" r="1" fill="#6a0101" />
  <circle cx="12" cy="20" r="1" fill="#6a0101" />
  
  <!-- Shiny reflection -->
  <path d="M14,12 C14,11 15,10 16,10 C17,10 18,11 18,12 C18,13 17,14 16,14 C15,14 14,13 14,12 Z" 
        fill="#ffffff" opacity="0.3" />
</svg>